<?xml version="1.0" standalone="no"?>
<!DOCTYPE svg PUBLIC "-//W3C//DTD SVG 20010904//EN"
 "http://www.w3.org/TR/2001/REC-SVG-20010904/DTD/svg10.dtd">
<svg version="1.0" xmlns="http://www.w3.org/2000/svg"
 width="300.000000pt" height="204.000000pt" viewBox="0 0 300.000000 204.000000"
 preserveAspectRatio="xMidYMid meet">
<metadata>
Created by potrace 1.10, written by Peter Selinger 2001-2011
</metadata>
<g transform="translate(0.000000,204.000000) scale(0.100000,-0.100000)"
fill="#000000" stroke="none">
<path d="M595 2026 c-354 -68 -595 -350 -595 -695 0 -305 191 -562 495 -668
75 -26 90 -28 250 -28 153 0 177 2 240 24 181 61 328 182 466 386 19 28 37 52
41 55 3 3 35 -35 69 -84 130 -183 275 -299 435 -352 84 -27 98 -29 254 -28
150 0 172 2 242 26 119 40 204 92 294 182 140 140 205 292 205 481 1 107 -8
161 -42 251 -80 213 -272 381 -504 440 -101 26 -284 23 -390 -5 -197 -53 -339
-154 -488 -346 -38 -49 -71 -90 -72 -90 -2 0 -24 29 -51 65 -100 137 -230 253
-351 314 -138 69 -352 100 -498 72z m278 -251 c163 -42 290 -149 432 -363 l48
-73 -78 -117 c-172 -256 -317 -352 -529 -352 -146 1 -278 53 -372 148 -240
243 -138 636 196 749 79 27 216 31 303 8z m1528 -1 c166 -50 294 -175 334
-329 77 -298 -158 -574 -491 -575 -213 0 -360 98 -528 353 l-78 119 58 86
c123 183 275 308 417 347 72 19 221 19 288 -1z"/>
<path d="M500 1350 l0 -50 245 0 245 0 0 50 0 50 -245 0 -245 0 0 -50z"/>
<path d="M2160 1490 l0 -70 -63 0 c-35 0 -66 -2 -68 -4 -2 -2 -2 -32 -1 -65
l4 -61 64 0 64 0 0 -70 0 -70 70 0 70 0 0 70 0 70 65 0 65 0 0 65 0 65 -65 0
-64 0 -3 68 -3 67 -67 3 -68 3 0 -71z"/>
<path d="M2826 1972 c7 -4 14 -18 17 -32 l4 -25 2 27 c0 14 7 29 14 31 6 3 -1
6 -18 6 -16 0 -25 -3 -19 -7z"/>
<path d="M2881 1948 c0 -28 2 -30 9 -13 12 28 12 45 0 45 -5 0 -10 -15 -9 -32z"/>
<path d="M2923 1962 c-3 -12 -9 -19 -14 -16 -5 3 -9 1 -9 -5 0 -5 4 -12 8 -15
11 -7 38 42 28 51 -4 4 -9 -3 -13 -15z"/>
<path d="M2710 478 c-77 -40 -110 -109 -110 -234 0 -176 93 -265 243 -232 90
19 141 88 153 206 12 107 -23 207 -89 256 -43 31 -140 34 -197 4z m140 -78
c27 -15 44 -76 42 -157 -1 -77 -19 -125 -51 -143 -25 -13 -67 -13 -90 0 -59
31 -69 231 -15 291 19 21 83 26 114 9z"/>
<path d="M177 483 c-3 -4 -35 -106 -71 -225 -36 -119 -69 -224 -72 -232 -5
-13 2 -16 43 -16 l49 0 15 48 15 47 84 0 84 0 14 -47 13 -48 54 0 c39 0 53 4
50 13 -2 6 -20 64 -39 127 -19 63 -50 165 -69 225 l-33 110 -66 3 c-37 2 -68
-1 -71 -5z m93 -185 c12 -46 25 -91 27 -100 5 -16 -2 -18 -50 -18 -31 0 -58 3
-61 8 -5 9 47 192 55 192 3 0 16 -37 29 -82z"/>
<path d="M500 250 l0 -240 50 0 50 0 0 100 c0 89 2 100 18 100 34 0 60 -30 98
-115 l38 -85 58 0 58 0 -46 93 c-25 50 -55 102 -66 113 -19 21 -19 21 17 42
84 50 72 179 -21 218 -22 9 -73 14 -144 14 l-110 0 0 -240z m208 144 c44 -30
22 -88 -39 -104 -61 -17 -69 -10 -69 60 l0 60 43 0 c23 0 53 -7 65 -16z"/>
<path d="M910 249 l0 -242 109 5 c136 6 190 29 235 101 53 85 47 239 -11 308
-46 54 -93 69 -220 69 l-113 0 0 -241z m219 146 c38 -19 55 -66 55 -146 -1
-104 -34 -145 -125 -156 l-49 -6 0 162 0 161 45 0 c26 0 59 -7 74 -15z"/>
<path d="M1340 308 c0 -163 2 -186 20 -224 26 -53 71 -76 154 -77 78 -2 132
25 163 79 21 36 23 51 23 222 l0 182 -44 0 -44 0 -4 -181 -3 -181 -28 -24
c-37 -31 -81 -31 -112 1 -25 24 -25 26 -25 205 l0 180 -50 0 -50 0 0 -182z"/>
<path d="M1790 450 l0 -40 55 0 56 0 -3 -157 -3 -158 -52 -3 -53 -3 0 -40 0
-39 155 0 155 0 0 40 0 40 -50 0 -50 0 0 160 0 160 50 0 50 0 0 40 0 40 -155
0 -155 0 0 -40z"/>
<path d="M2190 250 l0 -240 45 0 45 0 0 162 c0 89 3 158 8 154 4 -4 39 -76 77
-159 l71 -152 57 -3 57 -3 0 241 0 240 -40 0 -40 0 0 -155 c0 -85 -3 -155 -7
-155 -5 1 -40 69 -78 153 l-71 152 -62 3 -62 3 0 -241z"/>
</g>
</svg>
