<?xml version="1.0" standalone="no"?>
<!DOCTYPE svg PUBLIC "-//W3C//DTD SVG 20010904//EN"
 "http://www.w3.org/TR/2001/REC-SVG-20010904/DTD/svg10.dtd">
<svg version="1.0" xmlns="http://www.w3.org/2000/svg"
 width="900.000000pt" height="900.000000pt" viewBox="0 0 900.000000 900.000000"
 preserveAspectRatio="xMidYMid meet">
<metadata>
Created by potrace 1.10, written by Peter Selinger 2001-2011
</metadata>
<g transform="translate(0.000000,900.000000) scale(0.100000,-0.100000)"
fill="#000000" stroke="none">
<path d="M1815 7610 c-116 -19 -217 -41 -275 -59 -19 -7 -57 -19 -85 -27 -27
-9 -64 -22 -82 -30 -17 -8 -36 -14 -41 -14 -6 0 -23 -7 -39 -15 -15 -8 -75
-37 -133 -65 -58 -29 -118 -60 -135 -71 -16 -10 -37 -22 -45 -26 -20 -10 -137
-90 -185 -127 -130 -100 -304 -279 -408 -418 -46 -62 -87 -120 -90 -128 -4 -8
-16 -28 -27 -45 -11 -16 -23 -37 -27 -45 -4 -8 -19 -35 -33 -60 -21 -37 -68
-143 -109 -245 -27 -69 -49 -144 -78 -270 -25 -107 -31 -740 -8 -845 27 -126
60 -241 98 -340 60 -158 177 -367 281 -505 61 -80 224 -258 281 -305 17 -13
32 -27 35 -30 41 -44 256 -195 342 -240 133 -70 209 -106 308 -145 25 -9 56
-22 70 -27 51 -21 241 -68 380 -94 140 -27 701 -27 840 -1 141 28 301 69 363
95 16 7 34 12 42 12 8 0 16 4 19 9 3 5 18 12 33 16 34 8 222 102 301 150 184
112 425 319 583 501 24 28 55 64 69 80 20 23 83 103 143 179 38 49 157 217
157 221 0 4 14 23 30 44 17 21 30 42 30 47 0 5 11 20 24 33 24 22 56 22 56 0
0 -6 5 -16 10 -23 6 -7 30 -40 53 -74 107 -159 158 -230 175 -249 10 -10 23
-27 28 -36 26 -45 216 -260 330 -374 89 -88 256 -230 324 -274 12 -8 39 -27
59 -41 20 -14 43 -28 51 -32 8 -4 29 -16 45 -26 37 -24 152 -82 220 -111 28
-11 59 -25 70 -30 123 -55 372 -114 545 -130 118 -11 464 -11 590 0 201 19
478 83 582 136 14 8 31 14 37 14 14 0 261 122 306 151 17 10 37 22 45 26 20
10 102 65 116 78 6 5 22 17 35 25 75 49 242 208 348 332 87 101 162 202 184
248 4 8 16 29 26 45 18 27 103 198 136 270 36 81 87 258 119 415 30 145 28
594 -4 750 -31 157 -75 298 -141 450 -36 84 -60 127 -162 295 -85 138 -327
404 -462 506 -65 50 -194 139 -200 139 -2 0 -21 11 -41 25 -47 32 -245 128
-334 162 -158 60 -321 102 -500 128 -92 14 -164 16 -365 12 -276 -5 -433 -24
-595 -71 -133 -39 -168 -50 -197 -63 -17 -7 -38 -13 -46 -13 -9 0 -18 -4 -21
-9 -3 -5 -18 -12 -33 -16 -37 -9 -223 -102 -308 -153 -38 -24 -79 -48 -90 -55
-155 -95 -445 -356 -610 -551 -28 -33 -64 -75 -81 -95 -45 -52 -206 -270 -233
-314 -36 -59 -38 -58 -161 115 -57 79 -192 249 -245 307 -22 24 -44 49 -50 55
-44 50 -141 150 -191 195 -118 109 -140 128 -229 194 -49 37 -94 70 -100 75
-22 18 -186 114 -256 149 -130 67 -329 145 -409 162 -19 4 -51 13 -70 19 -53
17 -172 40 -300 57 -161 21 -536 18 -685 -5z m675 -728 c19 -5 69 -18 110 -27
121 -27 286 -88 363 -135 17 -11 44 -25 60 -31 15 -6 27 -15 27 -20 0 -5 4 -9
10 -9 13 0 133 -82 200 -138 145 -119 349 -345 499 -552 54 -74 245 -357 268
-397 10 -18 4 -34 -48 -119 -161 -265 -172 -282 -350 -522 -263 -354 -515
-574 -789 -689 -222 -93 -427 -123 -726 -104 -104 6 -218 18 -254 27 -108 25
-214 56 -225 65 -5 5 -15 9 -22 9 -19 0 -157 66 -231 112 -313 192 -551 503
-635 833 -56 218 -57 477 -2 665 7 25 16 60 20 77 3 18 11 35 16 38 5 4 9 13
9 20 0 21 65 156 112 233 89 146 235 305 358 392 19 14 37 28 40 31 8 9 173
104 210 121 19 9 51 23 70 31 19 8 52 22 73 31 21 9 45 16 53 16 9 0 37 7 63
15 130 41 169 44 431 41 140 -2 271 -8 290 -14z m4595 -6 c167 -36 221 -54
339 -111 111 -54 208 -112 255 -154 13 -11 27 -21 32 -21 20 0 231 -225 285
-306 188 -277 272 -603 234 -899 -14 -108 -39 -223 -56 -263 -8 -18 -14 -37
-14 -43 0 -23 -64 -158 -113 -239 -149 -244 -371 -442 -631 -564 -42 -20 -83
-36 -91 -36 -7 0 -16 -4 -20 -9 -3 -5 -20 -12 -38 -16 -17 -4 -50 -12 -72 -20
-92 -30 -192 -45 -376 -56 -169 -11 -212 -10 -333 5 -76 9 -146 20 -155 25 -9
5 -37 12 -63 15 -26 4 -50 11 -53 17 -4 5 -15 9 -26 9 -17 0 -134 49 -169 71
-8 5 -26 14 -39 19 -27 12 -182 113 -202 132 -8 7 -34 29 -59 49 -107 87 -260
252 -370 399 -36 47 -68 90 -72 95 -33 41 -87 119 -159 230 -143 219 -144 220
-155 245 -4 8 -17 29 -29 45 -36 49 -36 61 -4 104 16 23 29 43 29 45 0 6 116
180 154 232 17 23 38 52 46 64 27 40 135 184 160 214 114 134 247 269 348 357
60 51 179 137 212 152 8 4 29 16 45 27 60 39 192 99 285 129 194 64 293 79
545 80 196 0 232 -2 330 -23z"/>
<path d="M1478 5589 c-2 -83 -1 -153 1 -155 2 -2 337 -4 743 -4 l739 0 -3 153
-3 152 -737 3 -737 2 -3 -151z"/>
<path d="M6470 6001 c0 -159 -3 -192 -16 -205 -13 -13 -46 -16 -205 -16 l-189
0 0 -195 0 -195 186 0 c109 0 193 -4 205 -10 18 -10 19 -23 19 -205 l0 -195
200 0 200 0 0 189 c0 161 2 192 16 206 14 13 43 16 196 15 99 -1 184 2 189 7
5 5 8 92 7 194 l-3 184 -193 5 c-157 4 -195 8 -202 20 -5 8 -10 99 -10 203 l0
187 -200 0 -200 0 0 -189z"/>
<path d="M8455 7471 c-3 -5 5 -13 17 -17 33 -10 38 -21 38 -96 0 -39 4 -68 10
-68 6 0 10 29 10 66 0 74 12 104 40 104 11 0 20 5 20 10 0 13 -127 13 -135 1z"/>
<path d="M8637 7473 c-10 -9 -9 -183 1 -183 8 0 29 69 39 128 7 41 -19 77 -40
55z"/>
<path d="M8772 7468 c-17 -17 -15 -70 3 -104 8 -16 15 -39 15 -51 0 -13 5 -23
10 -23 14 0 9 182 -5 187 -6 2 -16 -2 -23 -9z"/>
<path d="M8700 7330 c0 -33 3 -40 20 -40 16 0 20 7 20 34 0 22 -6 36 -16 40
-24 9 -24 9 -24 -34z"/>
<path d="M8260 3014 c-211 -41 -364 -184 -438 -409 -76 -230 -52 -617 49 -795
5 -8 13 -24 18 -35 29 -65 150 -164 242 -198 106 -40 369 -40 459 -1 180 79
274 186 346 394 17 49 19 86 19 325 -1 295 -3 308 -73 455 -30 62 -138 177
-192 204 -100 50 -132 57 -270 61 -74 2 -146 1 -160 -1z m254 -274 c36 -22 82
-75 104 -120 32 -65 44 -141 49 -308 4 -143 2 -185 -12 -250 -23 -97 -53 -157
-102 -204 -51 -48 -102 -68 -178 -68 -78 0 -137 24 -186 76 -75 79 -99 168
-106 384 -4 144 -2 176 16 253 31 129 64 186 136 232 44 28 82 35 167 31 57
-3 87 -10 112 -26z"/>
<path d="M707 3000 l-188 -5 -19 -60 c-11 -33 -26 -81 -35 -106 -8 -26 -15
-52 -15 -59 0 -7 -6 -26 -13 -43 -8 -18 -22 -59 -32 -92 -19 -66 -41 -138 -60
-200 -6 -22 -20 -67 -30 -100 -9 -33 -30 -98 -45 -145 -14 -47 -35 -112 -44
-145 -10 -33 -24 -78 -31 -100 -6 -22 -19 -65 -28 -95 -9 -30 -30 -95 -46
-145 -16 -49 -31 -102 -35 -117 l-6 -28 145 0 c138 0 145 1 145 20 0 11 6 37
14 57 12 35 38 119 51 169 3 12 18 27 33 33 32 13 448 12 474 0 15 -8 27 -37
65 -169 9 -30 20 -67 26 -82 l9 -28 159 0 c88 0 159 2 159 5 0 3 -4 13 -9 23
-5 9 -20 51 -32 92 -12 41 -27 93 -34 115 -7 22 -21 67 -31 100 -9 33 -30 101
-46 150 -16 50 -35 110 -42 135 -8 25 -22 72 -32 105 -9 33 -28 92 -40 130
-12 39 -32 104 -44 145 -12 41 -28 93 -35 115 -7 22 -21 67 -31 100 -39 131
-67 210 -78 220 -7 6 -81 8 -199 5z m42 -423 c10 -48 20 -83 56 -204 60 -201
77 -271 70 -284 -4 -5 -81 -9 -176 -9 l-169 0 0 25 c0 13 4 34 9 47 9 26 28
88 67 223 14 50 32 113 40 140 8 28 19 69 24 93 5 24 12 48 16 53 12 20 51
-32 63 -84z"/>
<path d="M1504 3001 c-2 -2 -4 -328 -4 -723 l0 -719 140 3 140 3 3 287 c1 157
6 290 10 295 14 13 93 7 131 -11 49 -23 95 -72 118 -125 11 -26 28 -64 38 -86
10 -22 31 -67 45 -100 48 -108 67 -149 95 -205 l27 -55 167 -3 c91 -1 166 0
166 3 0 3 -60 127 -134 275 -133 269 -167 326 -214 366 -28 23 -25 50 5 60 95
32 162 89 203 173 27 55 30 69 30 162 0 130 -17 181 -88 260 -30 32 -59 59
-66 59 -7 0 -17 5 -23 11 -22 22 -118 47 -223 58 -101 11 -557 20 -566 12z
m566 -263 c58 -25 88 -60 96 -114 16 -106 -23 -184 -112 -224 -58 -25 -250
-32 -265 -9 -10 17 -12 339 -1 355 13 20 36 23 137 17 66 -3 115 -12 145 -25z"/>
<path d="M2734 3001 c-2 -2 -4 -328 -4 -723 l0 -718 221 0 c308 0 425 19 578
94 118 57 232 194 273 326 38 124 48 190 48 323 0 275 -73 463 -224 575 -84
62 -178 95 -316 111 -91 11 -567 20 -576 12z m593 -263 c95 -37 156 -111 194
-238 9 -30 14 -100 14 -210 0 -110 -5 -180 -14 -210 -53 -176 -151 -258 -336
-280 -121 -13 -141 -13 -159 6 -14 14 -16 71 -16 478 0 254 3 466 7 469 3 4
61 7 129 7 102 0 132 -4 181 -22z"/>
<path d="M4013 2992 c-10 -11 -13 -107 -13 -480 0 -474 6 -596 37 -689 36
-111 128 -204 244 -247 68 -25 235 -37 358 -25 215 20 343 117 419 319 l25 65
4 523 c3 339 1 527 -5 535 -7 9 -49 11 -146 9 l-135 -3 -3 -532 -3 -532 -30
-54 c-50 -92 -126 -122 -270 -106 -82 8 -138 47 -175 120 l-25 50 -5 525 -5
525 -129 5 c-100 4 -133 2 -143 -8z"/>
<path d="M5816 3002 c-345 -2 -452 -5 -458 -15 -14 -21 -10 -193 5 -205 8 -7
72 -13 158 -14 l144 -3 3 -465 c1 -256 0 -475 -3 -487 -5 -22 -9 -23 -158 -25
l-152 -3 0 -110 0 -110 468 -3 468 -2 -3 112 -3 113 -140 3 c-128 2 -141 4
-157 23 -17 20 -18 57 -18 473 0 346 3 456 13 469 10 14 35 17 157 19 l145 3
3 111 c2 84 -1 113 -10 115 -7 2 -215 3 -462 1z"/>
<path d="M6574 2999 c-2 -4 -4 -328 -4 -720 l-1 -714 127 0 127 0 2 468 c1
306 5 471 12 478 7 7 17 -1 32 -26 11 -20 21 -39 21 -42 0 -3 10 -27 22 -52
11 -25 34 -73 49 -106 15 -33 48 -103 72 -155 25 -52 56 -120 70 -150 52 -115
90 -197 122 -265 18 -38 42 -89 52 -112 l18 -42 173 -1 172 0 0 713 c0 435 -4
717 -9 723 -6 5 -63 8 -130 6 l-121 -3 0 -457 c0 -289 -4 -463 -10 -472 -9
-13 -12 -12 -25 4 -8 11 -15 26 -15 33 0 7 -4 21 -10 31 -5 9 -32 67 -60 127
-28 61 -64 137 -80 170 -16 33 -47 98 -68 145 -149 318 -193 410 -204 416 -13
8 -329 10 -334 3z"/>
</g>
</svg>
