<?xml version="1.0" standalone="no"?>
<!DOCTYPE svg PUBLIC "-//W3C//DTD SVG 20010904//EN"
 "http://www.w3.org/TR/2001/REC-SVG-20010904/DTD/svg10.dtd">
<svg version="1.0" xmlns="http://www.w3.org/2000/svg"
 width="256.000000pt" height="256.000000pt" viewBox="0 0 256.000000 256.000000"
 preserveAspectRatio="xMidYMid meet">
<metadata>
Created by potrace 1.10, written by Peter Selinger 2001-2011
</metadata>
<g transform="translate(0.000000,256.000000) scale(0.100000,-0.100000)"
fill="#000000" stroke="none">
<path d="M1423 2315 c-160 -35 -314 -150 -384 -287 -11 -21 -21 -38 -24 -38
-2 0 -23 13 -47 29 -144 97 -329 73 -454 -57 -14 -15 -40 -55 -56 -90 -25 -51
-31 -78 -33 -139 l-2 -74 -44 -26 c-160 -90 -249 -244 -249 -428 0 -202 114
-373 300 -452 l65 -28 296 -3 296 -3 5 118 c3 101 7 124 28 160 23 42 75 85
116 97 19 6 22 16 26 79 11 164 117 299 277 352 80 26 207 18 284 -19 127 -61
216 -191 225 -330 l4 -71 51 -25 c74 -36 108 -95 115 -195 2 -41 8 -75 12 -75
4 0 30 22 58 50 95 94 142 207 142 346 0 183 -92 339 -251 427 l-59 32 0 92
c0 365 -339 636 -697 558z"/>
<path d="M1557 1416 c-112 -42 -187 -151 -187 -272 l0 -54 60 0 60 0 0 43 c0
133 133 217 245 154 49 -27 85 -93 85 -154 l0 -43 60 0 60 0 0 53 c0 106 -54
199 -147 254 -56 32 -174 42 -236 19z"/>
<path d="M1247 979 c-42 -25 -47 -63 -46 -366 1 -158 4 -299 8 -312 3 -13 18
-32 31 -43 23 -17 53 -18 413 -19 425 0 426 0 448 58 6 16 9 147 7 336 l-3
309 -28 24 -28 24 -392 0 c-260 -1 -398 -4 -410 -11z m495 -198 c38 -42 39
-106 3 -149 -21 -25 -25 -40 -25 -93 0 -83 -15 -113 -58 -117 -50 -5 -59 10
-67 101 -6 65 -12 88 -31 110 -45 54 -24 150 40 178 11 5 41 7 66 5 34 -3 51
-11 72 -35z"/>
</g>
</svg>
