<?xml version="1.0" standalone="no"?>
<!DOCTYPE svg PUBLIC "-//W3C//DTD SVG 20010904//EN"
 "http://www.w3.org/TR/2001/REC-SVG-20010904/DTD/svg10.dtd">
<svg version="1.0" xmlns="http://www.w3.org/2000/svg"
 width="300.000000pt" height="300.000000pt" viewBox="0 0 300.000000 300.000000"
 preserveAspectRatio="xMidYMid meet">
<metadata>
Created by potrace 1.10, written by Peter Selinger 2001-2011
</metadata>
<g transform="translate(0.000000,300.000000) scale(0.050000,-0.050000)"
fill="#000000" stroke="none">
<path d="M938 4775 c-162 -110 -158 -89 -158 -928 0 -584 5 -747 25 -747 14 0
45 -6 70 -13 l45 -12 0 724 c0 799 3 817 122 859 90 31 3106 31 3196 0 108
-38 122 -93 122 -487 0 -383 -4 -370 117 -338 l47 13 -7 372 c-8 423 -24 473
-174 558 l-78 44 -1630 0 -1629 0 -68 -45z"/>
<path d="M4388 3721 c-132 -55 -128 -20 -128 -1153 l0 -1027 58 -66 59 -65
709 -6 709 -5 62 52 c99 83 103 127 103 1119 0 969 -5 1030 -92 1111 l-51 49
-694 4 c-381 2 -712 -4 -735 -13z m1412 -1091 l0 -931 -695 6 -695 5 -5 925
-5 925 700 0 700 0 0 -930z m-909 -1052 c16 -52 -30 -105 -77 -87 -33 13 -47
90 -21 116 29 28 85 11 98 -29z m265 -10 c8 -58 -46 -101 -86 -68 -31 26 -40
83 -16 108 28 28 96 2 102 -40z m261 18 c24 -42 -5 -106 -47 -106 -16 0 -39
19 -51 41 -40 76 57 139 98 65z"/>
<path d="M175 2969 c-111 -60 -115 -90 -115 -770 0 -829 -19 -799 503 -799
507 0 497 -16 497 814 0 807 14 787 -514 785 -240 0 -329 -8 -371 -30z m535
-69 c8 -13 -51 -20 -164 -20 -121 1 -167 7 -146 20 40 26 294 26 310 0z m250
-700 l0 -581 -405 6 -405 5 -5 550 c-3 302 -1 561 4 575 7 19 106 25 410 25
l401 0 0 -580z m-351 -667 c16 -28 13 -41 -17 -64 -45 -33 -92 -7 -92 52 0 64
72 72 109 12z"/>
<path d="M1160 2330 l0 -210 1500 0 1500 0 0 210 0 210 -1500 0 -1500 0 0
-210z m1539 61 c13 -16 21 -50 18 -75 -10 -68 -144 -68 -154 0 -7 55 29 104
77 104 19 0 46 -13 59 -29z"/>
<path d="M2311 1935 c-4 -14 -12 -85 -17 -158 -12 -173 -15 -177 -160 -177
-154 -1 -179 -15 -170 -102 l6 -68 670 0 670 0 6 68 c9 86 -16 101 -159 102
-143 0 -161 22 -173 211 l-9 149 -328 0 c-245 0 -330 -6 -336 -25z"/>
</g>
</svg>
