<?xml version="1.0" standalone="no"?>
<!DOCTYPE svg PUBLIC "-//W3C//DTD SVG 20010904//EN"
 "http://www.w3.org/TR/2001/REC-SVG-20010904/DTD/svg10.dtd">
<svg version="1.0" xmlns="http://www.w3.org/2000/svg"
 width="300.000000pt" height="300.000000pt" viewBox="0 0 300.000000 300.000000"
 preserveAspectRatio="xMidYMid meet">
<metadata>
Created by potrace 1.10, written by Peter Selinger 2001-2011
</metadata>
<g transform="translate(0.000000,300.000000) scale(0.050000,-0.050000)"
fill="#000000" stroke="none">
<path id="gear1" d="M2306 5850 c-32 -23 -45 -55 -50 -124 -5 -84 -12 -95 -66 -111 -33
-10 -80 -28 -105 -40 -38 -19 -57 -12 -127 44 -93 75 -147 67 -211 -31 -30
-46 -31 -56 -5 -75 16 -13 49 -50 72 -84 l43 -61 -43 -94 c-40 -86 -50 -94
-134 -106 -175 -25 -211 -227 -41 -228 99 -1 134 -23 172 -106 37 -86 43 -151
15 -172 -9 -7 -37 -36 -62 -64 l-46 -53 53 -62 c65 -78 73 -78 190 -2 91 58
98 59 162 31 37 -16 83 -34 102 -40 26 -8 35 -32 35 -97 0 -106 26 -135 120
-135 87 0 120 29 120 105 0 67 32 135 63 135 11 0 51 14 87 31 70 34 103 25
221 -61 36 -26 46 -26 85 1 84 59 88 96 20 188 -101 137 -29 301 131 301 191
0 194 209 3 222 -98 7 -124 25 -161 114 -40 94 -38 108 30 193 93 116 -15 273
-124 179 -153 -131 -355 -78 -355 94 0 118 -101 173 -194 108z m162 -623 c148
-71 161 -294 19 -348 -261 -99 -429 192 -197 340 75 48 93 49 178 8z"/>
<path id="gear2" d="M893 4575 c-28 -20 -34 -50 -29 -135 l6 -110 -93 -49 -93 -49 -78 54
c-168 116 -296 3 -176 -154 63 -82 62 -104 -1 -198 l-52 -76 -115 13 c-198 23
-229 -138 -42 -217 l100 -42 0 -102 0 -102 -105 -49 c-172 -80 -141 -236 43
-211 103 14 130 0 198 -100 45 -66 45 -67 -60 -211 -78 -109 82 -191 205 -106
l80 55 101 -47 101 -47 -13 -114 c-23 -193 141 -231 225 -53 l46 95 107 0 107
0 48 -95 c89 -173 249 -137 228 50 l-13 115 86 45 c106 56 104 56 184 -5 158
-120 294 7 172 160 -72 90 -71 66 -8 178 l52 94 116 -14 c192 -21 238 137 62
213 -97 42 -98 44 -105 143 -8 108 -6 110 113 158 168 68 114 230 -69 210
l-111 -13 -56 92 -55 92 60 83 c123 166 -7 286 -173 160 l-70 -54 -93 49 -93
49 6 114 c10 192 -151 231 -234 56 l-48 -100 -108 0 -108 0 -42 100 c-44 108
-120 135 -203 75z m535 -365 c451 -118 688 -578 504 -981 -226 -494 -887 -587
-1251 -176 -465 525 58 1336 747 1157z"/>
<path d="M1169 3920 c-285 -40 -444 -365 -299 -611 218 -373 810 -226 810 201
0 264 -231 449 -511 410z m187 -188 c187 -97 189 -338 3 -433 -110 -55 -203
-39 -293 51 -188 188 52 505 290 382z"/>
<path d="M2420 4072 c0 -12 115 -213 258 -450 68 -114 117 -214 108 -222 -9
-8 -68 -52 -132 -99 -639 -463 -841 -1487 -439 -2221 118 -217 311 -441 499
-582 l104 -78 1006 0 c1164 0 1026 -26 1301 245 714 705 714 1801 1 2512 -244
242 -244 185 -6 580 97 161 172 299 167 308 -9 15 -2867 22 -2867 7z m2356
-337 c-77 -118 -259 -438 -253 -444 4 -3 66 -45 137 -92 864 -578 953 -1774
180 -2417 l-122 -102 -896 0 -896 0 -160 155 c-539 523 -636 1401 -213 1942
155 199 385 405 534 480 112 55 112 51 17 208 -42 69 -101 168 -131 220 l-55
95 943 0 944 0 -29 -45z"/>
<path d="M3054 3107 c-54 -54 182 -210 406 -268 196 -51 284 -45 590 37 165
44 270 60 420 62 220 4 266 24 194 82 -132 109 -409 124 -684 39 -237 -74
-632 -71 -768 6 -98 56 -135 65 -158 42z"/>
<path d="M3347 2690 c-7 -18 -3 -42 9 -54 30 -30 88 -3 80 39 -9 46 -73 57
-89 15z"/>
<path d="M3050 2460 c-49 -54 -31 -125 37 -149 87 -30 161 63 108 135 -37 50
-106 57 -145 14z"/>
<path d="M2661 2127 c-55 -70 -52 -138 8 -198 140 -139 351 44 230 198 -59 75
-179 75 -238 0z"/>
<path d="M3757 2104 c-18 -8 -74 -60 -125 -117 -67 -74 -111 -106 -164 -116
-69 -13 -108 -28 -304 -117 -462 -209 -405 -404 165 -566 143 -40 272 -86 287
-101 168 -168 312 -172 327 -8 8 73 153 150 207 109 57 -43 190 -128 200 -128
26 0 90 136 90 193 0 104 50 125 126 53 123 -117 238 -186 307 -186 l67 0 0
99 c0 66 -18 137 -52 210 l-52 110 42 66 c160 249 95 356 -138 225 -50 -28
-136 -74 -191 -103 l-101 -52 -112 51 c-61 28 -150 61 -198 74 -226 58 -218
51 -218 171 0 132 -55 177 -163 133z m57 -325 c58 -22 166 -115 166 -143 0
-26 -37 -19 -95 19 -83 54 -186 84 -290 85 -52 0 -95 8 -95 19 0 38 226 53
314 20z m-653 -196 c86 -69 10 -191 -87 -140 -82 43 -91 80 -34 137 49 49 64
50 121 3z"/>
</g>
</svg>
