<?xml version="1.0" standalone="no"?>
<!DOCTYPE svg PUBLIC "-//W3C//DTD SVG 20010904//EN"
 "http://www.w3.org/TR/2001/REC-SVG-20010904/DTD/svg10.dtd">
<svg version="1.0" xmlns="http://www.w3.org/2000/svg"
 width="110.000000pt" height="110.000000pt" viewBox="0 0 110.000000 110.000000"
 preserveAspectRatio="xMidYMid meet">
<metadata>
Created by potrace 1.10, written by Peter Selinger 2001-2011
</metadata>
<g transform="translate(0.000000,110.000000) scale(0.100000,-0.100000)"
fill="#000000" stroke="none">
<path d="M420 1044 c-90 -24 -161 -65 -231 -134 -201 -200 -201 -510 0 -710
203 -201 519 -201 722 0 190 190 201 486 25 686 -126 143 -334 206 -516 158z
m251 -103 c131 -41 231 -142 271 -274 48 -159 -14 -340 -150 -437 -79 -57
-140 -75 -247 -74 -67 0 -104 6 -143 21 -115 46 -206 144 -243 262 -95 307
202 598 512 502z"/>
<path d="M507 739 c-61 -14 -137 -58 -194 -111 -47 -46 -67 -78 -45 -78 4 0
29 16 56 35 53 37 90 45 100 20 3 -8 1 -38 -4 -66 -15 -76 -12 -135 6 -153 18
-19 90 -21 147 -5 34 9 37 13 37 47 0 21 7 48 16 61 14 20 15 31 4 84 -6 34
-20 79 -31 100 l-19 37 24 0 c19 0 28 -10 44 -48 11 -26 24 -70 27 -98 7 -47
5 -51 -19 -62 -23 -10 -26 -18 -26 -61 0 -92 45 -88 95 9 24 48 60 85 97 104
31 15 29 36 -4 55 -15 9 -41 35 -58 59 -52 72 -141 97 -253 71z m20 -99 c13
-51 15 -127 5 -185 -6 -30 -12 -41 -28 -43 -20 -3 -21 0 -16 102 3 60 0 117
-6 134 -11 33 -6 44 18 40 8 -2 20 -22 27 -48z m233 -10 c0 -5 -7 -10 -15 -10
-8 0 -15 5 -15 10 0 6 7 10 15 10 8 0 15 -4 15 -10z"/>
<path d="M368 555 c-10 -13 -18 -36 -18 -50 0 -24 -3 -26 -25 -21 -21 5 -25 3
-25 -16 0 -22 35 -108 43 -108 10 0 39 54 42 78 1 15 6 53 10 85 7 62 0 70
-27 32z"/>
</g>
</svg>
