<svg width="300" height="300" preserveAspectRatio="xMidYMid meet">
 <metadata>Created by potrace 1.10, written by Peter Selinger 2001-2011</metadata>

 <g>
  <title>background</title>
  <rect fill="none" id="canvas_background" height="402" width="582" y="-1" x="-1"/>
 </g>
 <g>
  <title>Layer 1</title>
  <path id="gear1" d="m115.300003,7.499996c-1.599998,1.15 -2.25,2.75 -2.5,6.2c-0.25,4.2 -0.599998,4.749999 -3.300003,5.55c-1.650002,0.5 -4,1.4 -5.25,2c-1.900002,0.949999 -2.849998,0.6 -6.349998,-2.200001c-4.650002,-3.75 -7.349998,-3.349999 -10.550003,1.550001c-1.5,2.299999 -1.549995,2.799999 -0.25,3.75c0.800003,0.65 2.450005,2.5 3.600006,4.199999l2.149994,3.050001l-2.149994,4.699999c-2,4.299999 -2.5,4.700001 -6.700005,5.299999c-8.75,1.25 -10.549995,11.350002 -2.049995,11.400002c4.949997,0.049999 6.699997,1.150002 8.599998,5.299999c1.849998,4.299999 2.150002,7.550003 0.75,8.599998c-0.450005,0.350006 -1.849998,1.800003 -3.099998,3.200005l-2.300003,2.650002l2.650002,3.099998c3.25,3.900002 3.650002,3.900002 9.5,0.099998c4.549995,-2.900002 4.900002,-2.949997 8.099998,-1.550003c1.849998,0.800003 4.150002,1.700005 5.099998,2c1.300003,0.400002 1.75,1.600006 1.75,4.850006c0,5.299995 1.300003,6.75 6,6.75c4.349998,0 6,-1.450005 6,-5.25c0,-3.350006 1.599998,-6.75 3.150009,-6.75c0.549988,0 2.549988,-0.700005 4.349991,-1.550003c3.5,-1.699997 5.150009,-1.25 11.050003,3.050003c1.800003,1.299995 2.300003,1.299995 4.25,-0.050003c4.199997,-2.949997 4.399994,-4.800003 1,-9.400002c-5.050003,-6.849998 -1.449997,-15.049999 6.550003,-15.049999c9.550003,0 9.699997,-10.450001 0.149994,-11.099998c-4.899994,-0.350002 -6.199997,-1.25 -8.050003,-5.700001c-2,-4.700001 -1.899994,-5.400002 1.5,-9.650002c4.650009,-5.799999 -0.75,-13.65 -6.199997,-8.949999c-7.649994,6.549999 -17.75,3.9 -17.75,-4.700001c0,-5.9 -5.049995,-8.65 -9.699997,-5.4zm8.099998,31.150002c7.400002,3.549999 8.049995,14.699997 0.949997,17.399998c-13.049995,4.950001 -21.449997,-9.599998 -9.849998,-17c3.75,-2.399998 4.650002,-2.450001 8.900002,-0.399998z"/>
  <path id="gear2" d="m44.650002,71.25c-1.400002,1 -1.700001,2.5 -1.450001,6.75l0.299999,5.5l-4.649998,2.449997l-4.650002,2.449997l-3.9,-2.699997c-8.400002,-5.800003 -14.800001,-0.150002 -8.800001,7.699997c3.15,4.100006 3.1,5.200005 -0.049999,9.900002l-2.6,3.800003l-5.75,-0.650002c-9.9,-1.150002 -11.45,6.900002 -2.1,10.849998l5,2.099998l0,5.100006l0,5.099991l-5.25,2.450012c-8.6,4 -7.05,11.799988 2.150001,10.549988c5.150001,-0.699997 6.499999,0 9.900001,5c2.25,3.300003 2.25,3.350006 -3,10.550003c-3.900001,5.449997 4.099998,9.550003 10.25,5.300003l3.999998,-2.75l5.050003,2.350006l5.049999,2.349991l-0.650002,5.699997c-1.149998,9.650009 7.049999,11.550003 11.25,2.650009l2.299999,-4.75l5.350002,0l5.349998,0l2.400002,4.75c4.449997,8.649994 12.449997,6.849991 11.400002,-2.5l-0.650002,-5.75l4.300003,-2.25c5.299995,-2.800003 5.199997,-2.800003 9.199997,0.25c7.900002,6 14.699997,-0.350006 8.599998,-8c-3.599998,-4.5 -3.549995,-3.300003 -0.400002,-8.900009l2.600006,-4.699997l5.799995,0.699997c9.599998,1.050003 11.900002,-6.849991 3.099998,-10.649994c-4.849998,-2.100006 -4.899994,-2.199997 -5.25,-7.150002c-0.399994,-5.400002 -0.299995,-5.5 5.650002,-7.900002c8.400002,-3.399994 5.700005,-11.5 -3.449997,-10.5l-5.550003,0.650002l-2.799995,-4.599998l-2.75,-4.599998l3,-4.150002c6.149994,-8.300003 -0.350006,-14.300003 -8.650002,-8l-3.5,2.699997l-4.650002,-2.449997l-4.650002,-2.449997l0.300003,-5.700005c0.5,-9.599998 -7.550003,-11.549995 -11.700005,-2.799995l-2.399994,5l-5.400005,0l-5.399998,0l-2.100002,-5c-2.199997,-5.400002 -6,-6.75 -10.149998,-3.75zm26.75,18.25c22.550003,5.899994 34.400002,28.899994 25.199997,49.050003c-11.299995,24.699997 -44.349998,29.349991 -62.549999,8.799988c-23.249999,-26.249992 2.900002,-66.799995 37.350002,-57.849991z"/>
  <path id="svg_2" d="m58.450001,104c-14.25,2 -22.200001,18.25 -14.950001,30.550003c10.900002,18.649994 40.5,11.299988 40.5,-10.050003c0,-13.200005 -11.549995,-22.450005 -25.549999,-20.5zm9.350002,9.399994c9.349998,4.850006 9.449997,16.900009 0.150002,21.650009c-5.500004,2.75 -10.150005,1.949997 -14.650005,-2.550003c-9.399998,-9.400002 2.600002,-25.25 14.500004,-19.100006z"/>
  <path id="svg_3" d="m121,96.399994c0,0.600006 5.75,10.650002 12.900009,22.5c3.399994,5.700005 5.849991,10.699997 5.399994,11.100006c-0.449997,0.399994 -3.399994,2.599991 -6.600006,4.949997c-31.949997,23.149994 -42.049995,74.350006 -21.949997,111.050003c5.900002,10.850006 15.550003,22.049988 24.949997,29.100006l5.200012,3.899994l50.299988,0c58.200012,0 51.300003,1.299988 65.050003,-12.25c35.700012,-35.25 35.700012,-90.050003 0.050018,-125.600006c-12.200012,-12.099991 -12.200012,-9.25 -0.300018,-29c4.850006,-8.049995 8.600006,-14.949997 8.350006,-15.399994c-0.450012,-0.75 -143.350006,-1.100006 -143.350006,-0.350006zm117.800003,16.850006c-3.850006,5.899994 -12.949997,21.899994 -12.649994,22.199997c0.199997,0.149994 3.299988,2.25 6.849991,4.600006c43.200012,28.899994 47.649994,88.699997 9,120.849991l-6.099991,5.100006l-44.800003,0l-44.800003,0l-8,-7.75c-26.950005,-26.149994 -31.800003,-70.050003 -10.650002,-97.100006c7.750008,-9.949997 19.250008,-20.25 26.700005,-24c5.599991,-2.75 5.599991,-2.550003 0.849991,-10.399994c-2.099991,-3.450005 -5.049988,-8.400002 -6.549988,-11l-2.75,-4.75l47.149994,0l47.199997,0l-1.449997,2.25z"/>
  <path id="svg_4" d="m152.699997,144.649994c-2.699997,2.699997 9.100006,10.5 20.300003,13.400009c9.800003,2.549988 14.199997,2.25 29.5,-1.850006c8.25,-2.199997 13.5,-3 21,-3.100006c11,-0.199997 13.300003,-1.199997 9.699997,-4.099991c-6.599991,-5.449997 -20.449997,-6.199997 -34.199997,-1.949997c-11.849991,3.699997 -31.599991,3.549988 -38.399994,-0.300003c-4.900009,-2.800003 -6.75,-3.25 -7.900009,-2.100006z"/>
  <path id="svg_5" d="m167.350006,165.5c-0.350006,0.899994 -0.150009,2.099991 0.449997,2.699997c1.5,1.5 4.399994,0.149994 4,-1.949997c-0.449997,-2.300003 -3.649994,-2.850006 -4.449997,-0.75z"/>
  <path id="svg_6" d="m152.5,177c-2.449997,2.699997 -1.550003,6.25 1.850006,7.449997c4.349991,1.5 8.050003,-3.149994 5.399994,-6.75c-1.849991,-2.5 -5.300003,-2.850006 -7.25,-0.699997z"/>
  <path id="svg_7" d="m133.050003,193.649994c-2.75,3.5 -2.600006,6.900009 0.399994,9.900009c7,6.949997 17.550003,-2.199997 11.5,-9.900009c-2.949997,-3.75 -8.949997,-3.75 -11.899994,0z"/>
  <path id="svg_8" d="m187.850006,194.800003c-0.900009,0.399994 -3.699997,3 -6.25,5.849991c-3.350006,3.700012 -5.550003,5.300003 -8.199997,5.800003c-3.450012,0.650009 -5.400009,1.400009 -15.200012,5.850006c-23.099991,10.449997 -20.25,20.199997 8.25,28.300003c7.150009,2 13.600006,4.299988 14.350006,5.049988c8.399994,8.400009 15.600006,8.600006 16.350006,0.400009c0.399994,-3.650009 7.649994,-7.5 10.349991,-5.449997c2.850006,2.149994 9.5,6.399994 10,6.399994c1.300003,0 4.5,-6.800003 4.5,-9.649994c0,-5.200012 2.5,-6.25 6.300003,-2.650009c6.149994,5.850006 11.899994,9.300003 15.350006,9.300003l3.349991,0l0,-4.949997c0,-3.300003 -0.899994,-6.850006 -2.599991,-10.5l-2.600006,-5.5l2.100006,-3.300003c8,-12.449997 4.75,-17.800003 -6.900009,-11.25c-2.5,1.399994 -6.800003,3.699997 -9.550003,5.149994l-5.049988,2.600006l-5.600006,-2.550003c-3.050003,-1.399994 -7.5,-3.050003 -9.899994,-3.699997c-11.300003,-2.899994 -10.900009,-2.550003 -10.900009,-8.550003c0,-6.600006 -2.75,-8.850006 -8.149994,-6.649994zm2.849991,16.25c2.900009,1.099991 8.300003,5.75 8.300003,7.149994c0,1.300003 -1.849991,0.949997 -4.75,-0.949997c-4.149994,-2.699997 -9.300003,-4.199997 -14.5,-4.25c-2.599991,0 -4.75,-0.399994 -4.75,-0.949997c0,-1.900009 11.300003,-2.650009 15.699997,-1zm-32.649994,9.800003c4.300003,3.449997 0.5,9.549988 -4.350006,7c-4.099991,-2.150009 -4.549988,-4 -1.699997,-6.850006c2.449997,-2.449997 3.199997,-2.5 6.050003,-0.149994z"/>
 </g>
</svg>