<?xml version="1.0" standalone="no"?>
<!DOCTYPE svg PUBLIC "-//W3C//DTD SVG 20010904//EN"
 "http://www.w3.org/TR/2001/REC-SVG-20010904/DTD/svg10.dtd">
<svg version="1.0" xmlns="http://www.w3.org/2000/svg"
 width="900.000000pt" height="900.000000pt" viewBox="0 0 900.000000 900.000000"
 preserveAspectRatio="xMidYMid meet">
<metadata>
Created by potrace 1.10, written by Peter Selinger 2001-2011
</metadata>
<g transform="translate(0.000000,900.000000) scale(0.100000,-0.100000)"
fill="#000000" stroke="none">
<path d="M2091 8124 c-107 -30 -168 -88 -179 -172 l-7 -47 -90 -6 c-138 -10
-262 -27 -284 -39 -11 -5 -30 -10 -43 -10 -13 -1 -41 -9 -63 -20 -22 -11 -43
-19 -47 -20 -4 0 -35 -17 -70 -37 -160 -96 -268 -271 -311 -508 -40 -214 -43
-345 -21 -742 l6 -101 -29 -5 c-15 -3 -50 -9 -76 -12 -68 -9 -127 -67 -152
-150 -16 -54 -17 -70 -7 -155 15 -120 28 -194 43 -245 6 -22 18 -62 26 -90 40
-132 122 -248 200 -282 21 -9 65 -21 98 -27 60 -11 60 -11 73 -56 35 -118 64
-207 79 -239 83 -187 145 -274 312 -444 63 -64 119 -124 124 -132 5 -9 7 -116
5 -238 l-3 -222 -29 -59 c-77 -155 -278 -306 -581 -436 -27 -11 -59 -25 -70
-30 -11 -4 -47 -19 -80 -31 -108 -42 -269 -127 -336 -178 -177 -134 -265 -301
-293 -556 -14 -126 -14 -335 -1 -395 19 -86 79 -154 160 -180 60 -20 1649 -21
1685 -1 160 88 283 145 450 211 30 11 64 25 75 29 26 11 92 33 185 60 41 13
84 27 95 31 11 5 49 19 85 31 114 39 144 50 180 65 19 8 44 19 55 24 148 62
215 103 215 130 0 11 -44 64 -103 122 -57 57 -121 126 -143 153 -21 28 -41 52
-44 55 -35 34 -160 257 -203 360 -20 50 -44 112 -51 132 -3 9 -22 26 -43 37
-75 39 -179 128 -244 210 -148 183 -244 453 -283 791 -14 121 -6 311 14 358 6
13 10 31 10 40 1 9 9 35 20 57 11 22 19 44 20 49 0 20 94 147 144 197 l54 54
5 260 c4 200 10 287 26 377 23 134 39 204 51 233 5 11 12 31 15 45 7 30 29 86
62 160 102 228 303 432 528 535 84 39 244 92 301 101 27 4 64 13 82 21 39 16
39 19 -19 143 -61 129 -123 215 -233 326 -152 151 -325 263 -536 344 -47 18
-99 39 -117 47 -17 7 -39 13 -49 13 -10 0 -36 6 -59 14 -154 53 -474 80 -584
50z"/>
<path d="M6592 8123 c-108 -29 -170 -87 -179 -167 -3 -26 -9 -48 -12 -51 -4
-2 -43 -5 -87 -6 -113 -3 -358 -46 -389 -69 -5 -4 -21 -11 -33 -15 -94 -29
-241 -162 -299 -271 -37 -70 -80 -189 -89 -249 -7 -49 -11 -45 121 -115 312
-164 552 -374 733 -641 29 -42 52 -80 52 -84 0 -5 6 -16 13 -24 33 -39 107
-221 151 -371 41 -139 73 -404 64 -531 l-5 -70 48 -42 c83 -73 151 -179 192
-297 28 -81 50 -239 44 -320 -11 -135 -49 -360 -80 -470 -9 -30 -21 -73 -27
-95 -6 -22 -15 -49 -20 -60 -5 -11 -23 -53 -40 -94 -42 -101 -105 -193 -187
-272 -77 -74 -142 -116 -231 -150 -48 -18 -64 -30 -69 -48 -3 -14 -12 -36 -19
-50 -8 -14 -14 -31 -14 -37 0 -17 -82 -181 -130 -259 -54 -89 -148 -209 -239
-306 -76 -82 -89 -120 -53 -151 14 -13 111 -61 197 -98 11 -5 41 -18 67 -29
26 -12 50 -21 54 -21 7 0 151 -51 199 -70 11 -5 54 -18 95 -31 87 -25 276 -93
337 -120 23 -11 45 -19 48 -19 12 0 252 -118 295 -145 l44 -28 826 0 825 0 46
22 c55 26 80 51 112 111 14 25 30 44 36 43 8 -2 11 60 11 217 0 186 -2 220
-15 220 -14 0 -16 8 -31 107 -14 100 -86 241 -168 330 -90 97 -193 165 -371
243 -27 12 -64 28 -82 36 -17 8 -35 14 -40 14 -5 0 -33 11 -61 25 -29 14 -55
25 -59 25 -12 0 -176 85 -245 126 -169 101 -286 223 -331 344 -14 38 -17 85
-17 278 l0 232 78 82 c42 46 83 89 91 98 85 90 190 271 229 395 38 119 41 129
48 170 12 68 27 81 97 88 140 13 211 81 272 260 21 61 45 173 76 357 15 88 7
227 -16 265 -27 46 -63 68 -119 72 -100 8 -99 7 -93 66 3 29 11 75 18 102 16
68 17 437 1 493 -7 23 -17 61 -22 85 -12 49 -53 154 -82 212 -20 39 -107 175
-118 185 -3 3 -25 28 -50 55 -90 102 -246 228 -350 283 -225 120 -395 183
-595 217 -49 9 -115 20 -146 25 -78 14 -244 10 -307 -7z"/>
<path d="M4330 7004 c-131 -26 -210 -96 -227 -202 l-8 -47 -50 -3 c-374 -19
-552 -74 -702 -219 -159 -154 -226 -338 -253 -703 -10 -126 -7 -231 17 -617 4
-71 4 -73 -22 -83 -14 -5 -42 -10 -62 -10 -46 0 -134 -43 -159 -78 -41 -55
-49 -93 -48 -212 0 -109 11 -178 50 -335 64 -259 192 -407 365 -422 l58 -6 16
-56 c124 -430 239 -610 548 -860 l77 -62 0 -211 c0 -199 -1 -213 -22 -256 -58
-115 -222 -233 -473 -341 -27 -12 -58 -26 -67 -31 -10 -6 -23 -10 -29 -10 -6
0 -25 -7 -42 -14 -18 -8 -104 -38 -192 -67 -88 -28 -169 -55 -180 -59 -11 -5
-31 -12 -45 -15 -26 -7 -232 -86 -285 -110 -179 -79 -274 -136 -360 -214 -124
-113 -183 -215 -242 -416 -11 -36 -16 -123 -20 -317 -5 -262 -5 -267 18 -312
29 -60 72 -103 129 -129 l45 -22 2465 0 2465 0 45 22 c78 38 120 87 146 171
29 98 11 478 -30 631 -38 140 -107 252 -219 356 -90 84 -88 82 -154 122 -74
46 -135 73 -413 188 -30 12 -71 26 -90 30 -19 4 -41 11 -50 15 -8 5 -80 29
-159 55 -462 148 -734 304 -817 467 -23 45 -24 56 -24 255 l0 208 120 118
c119 118 237 264 278 344 11 23 25 50 31 60 31 58 51 106 51 121 0 10 4 22 9
27 10 12 38 99 51 158 5 23 15 67 23 97 l13 55 115 6 c129 6 169 21 232 86 40
41 86 127 110 208 8 28 20 68 26 90 7 22 16 63 21 90 4 28 13 77 19 110 26
145 28 176 16 254 -23 143 -87 201 -237 216 -83 8 -94 19 -80 82 34 156 37
188 37 373 0 128 -5 216 -14 255 -82 367 -264 628 -586 845 -122 82 -300 168
-450 218 -146 48 -169 54 -335 88 -74 15 -398 28 -450 18z"/>
</g>
</svg>
